<mxfile host="app.diagrams.net" modified="2024-05-29T13:48:16.071Z" agent="Mozilla/5.0 (Windows NT 10.0; Win64; x64) AppleWebKit/537.36 (KHTML, like Gecko) Chrome/125.0.0.0 Safari/537.36" etag="9fBeJ7ofz9ItaTIgekSw" version="24.4.9" type="github">
  <diagram name="Page-1" id="e7e014a7-5840-1c2e-5031-d8a46d1fe8dd">
    <mxGraphModel dx="466" dy="249" grid="1" gridSize="10" guides="1" tooltips="1" connect="1" arrows="1" fold="1" page="1" pageScale="1" pageWidth="1169" pageHeight="826" background="none" math="0" shadow="0">
      <root>
        <mxCell id="0" />
        <mxCell id="1" parent="0" />
        <mxCell id="5" value="" style="ellipse;shape=startState;fillColor=#000000;strokeColor=#ff0000;" parent="1" vertex="1">
          <mxGeometry x="230" y="120" width="30" height="30" as="geometry" />
        </mxCell>
        <mxCell id="cjV1lqKdVaNrGVdaHXTg-54" style="rounded=0;orthogonalLoop=1;jettySize=auto;html=1;entryX=0.5;entryY=0;entryDx=0;entryDy=0;" edge="1" parent="1" source="cjV1lqKdVaNrGVdaHXTg-41" target="cjV1lqKdVaNrGVdaHXTg-44">
          <mxGeometry relative="1" as="geometry" />
        </mxCell>
        <mxCell id="cjV1lqKdVaNrGVdaHXTg-41" value="&lt;span data-darkreader-inline-bgcolor=&quot;&quot; style=&quot;font-size: 8px; text-wrap: nowrap; background-color: rgb(220, 218, 215); --darkreader-inline-bgcolor: #c2beb9;&quot;&gt;acces page de reservation&lt;/span&gt;" style="rounded=1;whiteSpace=wrap;html=1;" vertex="1" parent="1">
          <mxGeometry x="196.25" y="180" width="97.5" height="20" as="geometry" />
        </mxCell>
        <mxCell id="cjV1lqKdVaNrGVdaHXTg-43" style="rounded=0;orthogonalLoop=1;jettySize=auto;html=1;entryX=0.501;entryY=0.031;entryDx=0;entryDy=0;entryPerimeter=0;" edge="1" parent="1" source="5" target="cjV1lqKdVaNrGVdaHXTg-41">
          <mxGeometry relative="1" as="geometry" />
        </mxCell>
        <mxCell id="cjV1lqKdVaNrGVdaHXTg-44" value="&lt;span data-darkreader-inline-bgcolor=&quot;&quot; style=&quot;font-size: 8px; text-wrap: nowrap; background-color: rgb(220, 218, 215); --darkreader-inline-bgcolor: #c2beb9;&quot;&gt;remplir le formulaire&lt;/span&gt;" style="rounded=1;whiteSpace=wrap;html=1;" vertex="1" parent="1">
          <mxGeometry x="202.5" y="220" width="85" height="20" as="geometry" />
        </mxCell>
        <mxCell id="cjV1lqKdVaNrGVdaHXTg-48" value="&lt;font style=&quot;font-size: 8px;&quot;&gt;connectÃ© ?&lt;/font&gt;" style="rhombus;whiteSpace=wrap;html=1;fontColor=#000000;fillColor=#ffffc0;strokeColor=#ff0000;" vertex="1" parent="1">
          <mxGeometry x="202.5" y="260" width="80" height="40" as="geometry" />
        </mxCell>
        <mxCell id="cjV1lqKdVaNrGVdaHXTg-49" value="non" style="edgeStyle=orthogonalEdgeStyle;html=1;align=left;verticalAlign=bottom;endArrow=open;endSize=8;strokeColor=#ff0000;rounded=0;" edge="1" source="cjV1lqKdVaNrGVdaHXTg-48" parent="1">
          <mxGeometry x="-1" relative="1" as="geometry">
            <mxPoint x="382.5" y="280" as="targetPoint" />
          </mxGeometry>
        </mxCell>
        <mxCell id="cjV1lqKdVaNrGVdaHXTg-50" value="oui" style="edgeStyle=orthogonalEdgeStyle;html=1;align=left;verticalAlign=top;endArrow=open;endSize=8;strokeColor=#ff0000;rounded=0;" edge="1" source="cjV1lqKdVaNrGVdaHXTg-48" parent="1">
          <mxGeometry x="-1" relative="1" as="geometry">
            <mxPoint x="242.5" y="360" as="targetPoint" />
          </mxGeometry>
        </mxCell>
        <mxCell id="cjV1lqKdVaNrGVdaHXTg-51" value="&lt;font style=&quot;font-size: 8px;&quot;&gt;table disponible ?&lt;/font&gt;" style="rhombus;whiteSpace=wrap;html=1;fontColor=#000000;fillColor=#ffffc0;strokeColor=#ff0000;" vertex="1" parent="1">
          <mxGeometry x="202.5" y="360" width="80" height="40" as="geometry" />
        </mxCell>
        <mxCell id="cjV1lqKdVaNrGVdaHXTg-52" value="non" style="edgeStyle=orthogonalEdgeStyle;html=1;align=left;verticalAlign=bottom;endArrow=open;endSize=8;strokeColor=#ff0000;rounded=0;" edge="1" source="cjV1lqKdVaNrGVdaHXTg-51" parent="1">
          <mxGeometry x="-1" relative="1" as="geometry">
            <mxPoint x="330" y="380" as="targetPoint" />
          </mxGeometry>
        </mxCell>
        <mxCell id="cjV1lqKdVaNrGVdaHXTg-53" value="oui" style="edgeStyle=orthogonalEdgeStyle;html=1;align=left;verticalAlign=top;endArrow=open;endSize=8;strokeColor=#ff0000;rounded=0;" edge="1" source="cjV1lqKdVaNrGVdaHXTg-51" parent="1">
          <mxGeometry x="-1" relative="1" as="geometry">
            <mxPoint x="242.5" y="460" as="targetPoint" />
          </mxGeometry>
        </mxCell>
        <mxCell id="cjV1lqKdVaNrGVdaHXTg-55" style="rounded=0;orthogonalLoop=1;jettySize=auto;html=1;entryX=0.5;entryY=-0.04;entryDx=0;entryDy=0;entryPerimeter=0;" edge="1" parent="1" source="cjV1lqKdVaNrGVdaHXTg-44" target="cjV1lqKdVaNrGVdaHXTg-48">
          <mxGeometry relative="1" as="geometry" />
        </mxCell>
      </root>
    </mxGraphModel>
  </diagram>
</mxfile>
